<?xml version="1.0" encoding="UTF-8"?>
<svg xmlns="http://www.w3.org/2000/svg" xmlns:xlink="http://www.w3.org/1999/xlink" width="24pt" height="24pt" viewBox="0 0 24 24" version="1.1">
<g id="surface1">
<path style=" stroke:#fff;stroke-width:1;fill-rule:nonzero;fill:rgb(0%,0%,0%);fill-opacity:1;" d="M 23.851562 23.148438 L 16.550781 15.84375 C 18.066406 14.160156 19 11.941406 19 9.5 C 19 4.261719 14.738281 0 9.5 0 C 4.261719 0 0 4.261719 0 9.5 C 0 14.738281 4.261719 19 9.5 19 C 11.941406 19 14.160156 18.066406 15.84375 16.550781 L 23.148438 23.851562 C 23.242188 23.949219 23.371094 24 23.5 24 C 23.628906 24 23.757812 23.949219 23.855469 23.851562 C 24.050781 23.65625 24.050781 23.339844 23.851562 23.148438 Z M 9.5 18 C 4.8125 18 1 14.1875 1 9.5 C 1 4.8125 4.8125 1 9.5 1 C 14.1875 1 18 4.8125 18 9.5 C 18 14.1875 14.1875 18 9.5 18 Z M 9.5 18 "/>
</g>
</svg>
